<?xml version="1.0" ?><!DOCTYPE svg  PUBLIC '-//W3C//DTD SVG 1.1//EN'  'http://www.w3.org/Graphics/SVG/1.1/DTD/svg11.dtd'><svg enable-background="new 0 0 1024 1024" height="1024px" id="Layer_1" version="1.1" viewBox="0 0 1024 1024" width="1024px" xml:space="preserve" xmlns="http://www.w3.org/2000/svg" xmlns:xlink="http://www.w3.org/1999/xlink"><g><path clip-rule="evenodd" d="M0.187,511.916c0.002-59.138-0.22-118.275,0.045-177.41    C0.946,174.666,103.878,45,259.581,8.347c17.979-4.233,36.696-7.209,55.107-7.413c69.311-0.767,138.688-1.78,207.946,0.301    C664.182,5.489,792.355,113.855,823.951,254.7c4.846,21.603,7.229,44.008,8.271,66.16c2.119,45.061,28.223,71.282,73.173,71.574    c20.602,0.135,41.412-0.861,61.751,1.685c32.814,4.11,55.634,30.218,55.828,63.312c0.493,83.803,2.279,167.684-0.476,251.399    c-5.292,160.693-130.864,293.861-291.5,312.293c-15.42,1.771-31.026,2.736-46.546,2.727c-122.415-0.074-244.85,0.84-367.238-1.109    C166.018,1020.328,32.071,903.965,6.481,754.754c-3.918-22.848-5.685-46.287-6.021-69.486    C-0.377,627.492,0.185,569.699,0.187,511.916z M513.788,760.973c61.547,0,123.095,0.258,184.64-0.088    c42.079-0.238,70.913-33.732,62.963-72.23c-6.271-30.371-30.062-48.568-64.513-48.609c-119.037-0.143-238.071-0.123-357.107-0.049    c-8.428,0.006-16.949,0.336-25.266,1.582c-35.252,5.277-57.788,39.922-48.655,74.273c7.461,28.057,30.93,44.996,63.298,45.078    C390.694,761.084,452.241,760.973,513.788,760.973z M418.397,268.046c0,0.022,0,0.043,0,0.067c-16.238,0-32.475-0.03-48.712,0.008    c-16.575,0.038-33.164-0.292-49.721,0.301c-36.986,1.322-65.544,37.637-58.341,73.684c6.324,31.655,29.688,51.924,61.886,52.124    c63.593,0.398,127.19,0.151,190.785,0.082c4.026-0.004,8.14-0.367,12.063-1.234c32.118-7.095,53.234-36.125,50.195-68.766    c-2.883-30.93-29.442-55.576-61.752-56.143C482.676,267.604,450.533,268.046,418.397,268.046z" fill-rule="evenodd"/></g></svg>